<svg width="32" height="32" viewBox="0 0 32 32" fill="none" xmlns="http://www.w3.org/2000/svg">
<path fill-rule="evenodd" clip-rule="evenodd" d="M16 32C24.8366 32 32 24.8366 32 16C32 7.16344 24.8366 0 16 0C7.16344 0 0 7.16344 0 16C0 24.8366 7.16344 32 16 32Z" fill="#FF4E50"/>
<path fill-rule="evenodd" clip-rule="evenodd" d="M13.0761 10.1711V19.5711C12.5641 19.4639 11.9689 19.5047 11.3785 19.7231C10.0497 20.2167 9.5809 21.4175 9.9329 22.4047C10.2849 23.3927 11.3249 23.7919 12.6529 23.2983C13.7809 22.8799 14.5201 21.9503 14.5017 21.0751C14.5017 21.0751 14.5017 16.0903 14.5017 13.3103L20.1257 12.0215V17.9863C19.6129 17.8799 19.0177 17.9199 18.4273 18.1391C17.0993 18.6327 16.6305 19.8335 16.9825 20.8207C17.3337 21.8087 18.3737 22.2079 19.7017 21.7151C20.8305 21.2959 21.5689 20.3663 21.5513 19.4919V8.35034L13.0761 10.1711Z" fill="white"/>
</svg>
